<!-- Generator: Adobe Illustrator 19.0.0, SVG Export Plug-In . SVG Version: 6.00 Build 0)  --><svg version="1.1" id="Capa_1" xmlns="http://www.w3.org/2000/svg" xmlns:xlink="http://www.w3.org/1999/xlink" x="0px" y="0px" viewBox="0 0 512 512" style="enable-background:new 0 0 512 512;" xml:space="preserve" height="32" width="32"><circle style="fill:#FFDC00;" cx="256" cy="256" r="256" /><path style="fill:#FFC000;" d="M281.857,510.707C411.098,497.743,512,388.657,512,256c0-0.438-0.014-0.873-0.017-1.311  l-90.253-90.253L299.763,290.502L135.686,124.5l-47.441,20l84.797,84.589L154.92,376.846l31.109,30.516l-3.99,3.525L281.857,510.707  z" /><polygon style="fill:#008CC3;" points="157.742,331.102 399.135,331.102 421.73,164.436 135.147,164.436 " /><polygon style="fill:#0074A3;" points="421.73,164.436 255.857,164.436 255.857,331.102 399.135,331.102 " /><polygon style="fill:#008CC3;" points="135.147,164.436 157.742,331.102 278.438,331.102 278.438,164.436 " /><polygon style="fill:#00BAFF;" points="167.376,189.346 182.317,306.038 207.593,306.038 196.581,189.346 " /><polygon style="fill:#008CC3;" points="360.296,189.346 349.284,306.038 374.56,306.038 389.501,189.346 " /><polygon style="fill:#00BAFF;" points="230.205,189.346 237.301,306.038 260.173,306.038 256.631,189.346 " /><polygon style="fill:#008CC3;" points="300.245,189.346 296.704,306.038 319.575,306.038 326.672,189.346 " /><circle style="fill:#00131E;" cx="356.65" cy="391.35" r="24.5" /><circle style="fill:#00263F;" cx="196.81" cy="391.35" r="24.5" /><polygon style="fill:#005C83;" points="395.936,376.846 154.92,376.846 118.572,144.5 88.245,144.5 88.245,124.5 135.686,124.5   172.034,356.846 395.936,356.846 " /><rect x="278.44" y="356.85" style="fill:#00263F;" width="117.5" height="20" /><g></g><g></g><g></g><g></g><g></g><g></g><g></g><g></g><g></g><g></g><g></g><g></g><g></g><g></g><g></g></svg>