<?xml version="1.0" encoding="UTF-8"?>
<svg xmlns="http://www.w3.org/2000/svg" xmlns:xlink="http://www.w3.org/1999/xlink" width="48px" height="48px" viewBox="0 0 48 48" version="1.1">
<g id="surface1">
<path style=" stroke:none;fill-rule:nonzero;fill:rgb(37.647059%,86.666667%,30.588235%);fill-opacity:1;" d="M 48 24 C 48 37.253906 37.253906 48 24 48 C 10.746094 48 0 37.253906 0 24 C 0 10.746094 10.746094 0 24 0 C 37.253906 0 48 10.746094 48 24 Z M 48 24 "/>
<path style=" stroke:none;fill-rule:nonzero;fill:rgb(0%,78.431373%,0%);fill-opacity:1;" d="M 47.890625 26.277344 L 28.035156 6.421875 L 19.964844 6.421875 L 19.964844 19.964844 L 6.421875 19.964844 L 6.421875 28.035156 L 26.277344 47.890625 C 37.714844 46.816406 46.816406 37.714844 47.890625 26.277344 Z M 47.890625 26.277344 "/>
<path style=" stroke:none;fill-rule:nonzero;fill:rgb(100%,100%,100%);fill-opacity:1;" d="M 41.578125 19.964844 L 28.035156 19.964844 L 28.035156 6.421875 L 19.964844 6.421875 L 19.964844 19.964844 L 6.421875 19.964844 L 6.421875 28.035156 L 19.964844 28.035156 L 19.964844 41.578125 L 28.035156 41.578125 L 28.035156 28.035156 L 41.578125 28.035156 Z M 41.578125 19.964844 "/>
<path style=" stroke:none;fill-rule:nonzero;fill:rgb(100%,96.078431%,79.607843%);fill-opacity:1;" d="M 41.578125 19.964844 L 41.578125 28.035156 L 28.035156 28.035156 L 28.035156 41.578125 L 24 41.578125 L 24 6.421875 L 28.035156 6.421875 L 28.035156 19.964844 Z M 41.578125 19.964844 "/>
</g>
</svg>
