<!-- Generator: Adobe Illustrator 19.0.0, SVG Export Plug-In . SVG Version: 6.00 Build 0)  --><svg version="1.1" id="Capa_1" xmlns="http://www.w3.org/2000/svg" xmlns:xlink="http://www.w3.org/1999/xlink" x="0px" y="0px" viewBox="0 0 512 512" style="enable-background:new 0 0 512 512;" xml:space="preserve" height="32" width="32"><circle style="fill:#005C83;" cx="256" cy="256" r="256" /><path style="fill:#00263F;" d="M511.32,274.653L374.667,138L137.333,419.333l91.197,91.197c9.026,0.963,18.188,1.47,27.47,1.47  C391.111,512,501.764,407.328,511.32,274.653z" /><polygon style="fill:#FFFFFF;" points="329.333,92.667 137.333,92.667 137.333,419.333 374.667,419.333 374.667,138 " /><polygon style="fill:#E0E0E0;" points="374.667,138 329.333,92.667 255.952,92.667 255.952,419.333 374.667,419.333 " /><polygon style="fill:#C0C0C0;" points="329.333,138 374.667,138 329.333,92.667 " /><rect x="159" y="194.19" style="fill:#E0E0E0;" width="131.5" height="29" /><rect x="255.95" y="194.19" style="fill:#C0C0C0;" width="34.548" height="29" /><rect x="159" y="151.69" style="fill:#FF6838;" width="193" height="29" /><rect x="255.95" y="151.69" style="fill:#AE4E32;" width="96.05" height="29" /><rect x="304.5" y="194.19" style="fill:#35CCFF;" width="47.5" height="29" /><rect x="159" y="237.53" style="fill:#E0E0E0;" width="131.5" height="29" /><rect x="255.95" y="237.53" style="fill:#C0C0C0;" width="34.548" height="29" /><rect x="304.5" y="237.53" style="fill:#35CCFF;" width="47.5" height="29" /><rect x="159" y="280.86" style="fill:#E0E0E0;" width="131.5" height="29" /><rect x="255.95" y="280.86" style="fill:#C0C0C0;" width="34.548" height="29" /><rect x="304.5" y="280.86" style="fill:#35CCFF;" width="47.5" height="29" /><rect x="159" y="324.19" style="fill:#E0E0E0;" width="131.5" height="29" /><rect x="255.95" y="324.19" style="fill:#C0C0C0;" width="34.548" height="29" /><rect x="304.5" y="324.19" style="fill:#35CCFF;" width="47.5" height="29" /><rect x="255.95" y="366.19" style="fill:#FFB344;" width="96.05" height="29" /><g></g><g></g><g></g><g></g><g></g><g></g><g></g><g></g><g></g><g></g><g></g><g></g><g></g><g></g><g></g></svg>