<svg id="Capa_1" enable-background="new 0 0 512 512" height="128" viewBox="0 0 512 512" width="128" xmlns="http://www.w3.org/2000/svg"><g><g><g><g><g><g><g><g><g><g><circle cx="256" cy="256" fill="#7584f2" r="256" /></g></g></g></g></g></g></g></g></g><path d="m512 256c0-15.01-1.292-29.719-3.771-44.021l-126.474-126.474-273.664 337.169 80.304 80.304c21.536 5.882 44.204 9.022 67.605 9.022 141.385 0 256-114.615 256-256z" fill="#4855b7" /><g><path d="m130.245 85.505h251.511v219.233h-251.511z" fill="#fff" /></g><g><path d="m255.844 85.505h125.911v219.233h-125.911z" fill="#e9edf5" /></g><g><path d="m154.285 122.434h203.431v30.776h-203.431z" fill="#dce1eb" /></g><g><path d="m255.844 122.434h101.871v30.776h-101.871z" fill="#bec3d2" /></g><g><path d="m154.285 174.561h203.431v30.776h-203.431z" fill="#dce1eb" /></g><g><path d="m255.844 174.561h101.871v30.776h-101.871z" fill="#bec3d2" /></g><g><path d="m403.909 422.674h-295.818v-235.872h100.532l23.457 38.117h171.829z" fill="#ffce00" /></g><g><path d="m255.844 224.919h148.065v197.755h-148.065z" fill="#fdba12" /></g><g><circle cx="256" cy="326.237" fill="#fff" r="70.237" /></g><g><path d="m256 256c-.052 0-.104.004-.156.004v140.466c.052 0 .103.004.156.004 38.791 0 70.237-31.446 70.237-70.237s-31.446-70.237-70.237-70.237z" fill="#e9edf5" /></g><g><path d="m302.538 309.963h-30.264v-30.264h-32.548v30.264h-30.264v32.548h30.264v30.264h32.548v-30.264h30.264z" fill="#fe6a16" /></g><g><path d="m272.274 309.963v-30.264h-16.43v93.076h16.43v-30.264h30.264v-32.548z" fill="#f24500" /></g></g></svg>