<svg id="Layer_3" height="52" viewBox="0 0 64 64" width="52" xmlns="http://www.w3.org/2000/svg" data-name="Layer 3"><path d="m35.935 13.884-.658-1.317a5.226 5.226 0 0 1 .193-5.028 5.225 5.225 0 0 1 3.377-2.421l1.723-1.3a9.091 9.091 0 0 1 5.452-1.818 9.089 9.089 0 0 1 3.765.817l2.791 1.271a7.074 7.074 0 0 1 3.136 2.8 7.08 7.08 0 0 1 .43 6.445l-1.151 2.667.007 1h1a2 2 0 0 1 2 2 2 2 0 0 1 -2 2h-1.055a9 9 0 0 1 -4.945 7.064v3.936l9.538 3.974a4 4 0 0 1 2.462 3.693v13.333h-60v-13.333a4 4 0 0 1 2.462-3.693l9.538-3.974v-3.936l-.027-.013a9.005 9.005 0 0 1 -4.918-7.051h-1.055a2 2 0 0 1 -2-2 2 2 0 0 1 2-2h1l-.007-1-1.716-3.433a5.226 5.226 0 0 1 .193-5.028 5.225 5.225 0 0 1 3.377-2.421l1.723-1.3a9.091 9.091 0 0 1 5.452-1.818 9.089 9.089 0 0 1 3.765.817l2.791 1.271a7.074 7.074 0 0 1 3.136 2.8 7.08 7.08 0 0 1 .43 6.445l-.295.682a9.084 9.084 0 0 1 4.173-1.015 9.089 9.089 0 0 1 3.765.817z" fill="#243242" /><path d="m36 43 15.071 4.186a4 4 0 0 1 2.929 3.854v10.96h-44v-10.96a4 4 0 0 1 2.929-3.854l15.071-4.186" fill="#8892a0" /><path d="m45.647 45.68-9.647-2.68h-8l-15.071 4.186a4 4 0 0 0 -2.929 3.854v10.96h23.848a34.569 34.569 0 0 0 11.799-16.32z" fill="#a8b0bc" /><path d="m40.993 27 1.151-2.667a7.08 7.08 0 0 0 -.43-6.445 7.08 7.08 0 0 0 -3.136-2.8l-2.791-1.271a9.089 9.089 0 0 0 -3.765-.817 9.091 9.091 0 0 0 -5.452 1.817l-1.67 1.291a5.227 5.227 0 0 0 -3.426 2.431 5.226 5.226 0 0 0 -.193 5.028l1.712 3.433h.007l2-4 1.6 1.2a9 9 0 0 0 5.4 1.8 9 9 0 0 0 5.4-1.8l1.6-1.2 2 4z" fill="#c18e59" /><path d="m43 28h-2v-1l-2-4-1.6 1.2a9 9 0 0 1 -10.8 0l-1.6-1.2-2 4v1h-2a2 2 0 0 0 0 4h2.059a8.993 8.993 0 0 0 4.941 7.053v3.947l4 4 4-4v-3.947a8.993 8.993 0 0 0 4.941-7.053h2.059a2 2 0 0 0 0-4z" fill="#fadfb2" /><path d="m17 52.999h2v8.999h-2z" fill="#8892a0" /><path d="m45 52.999h2v8.999h-2z" fill="#758190" /></svg>