<?xml version="1.0" encoding="UTF-8"?>
<svg xmlns="http://www.w3.org/2000/svg" xmlns:xlink="http://www.w3.org/1999/xlink" width="48px" height="48px" viewBox="0 0 48 48" version="1.1">
<g id="surface1">
<path style=" stroke:none;fill-rule:nonzero;fill:rgb(100%,37.254902%,10.980392%);fill-opacity:1;" d="M 48 24 C 48 37.253906 37.253906 48 24 48 C 10.746094 48 0 37.253906 0 24 C 0 10.746094 10.746094 0 24 0 C 37.253906 0 48 10.746094 48 24 Z M 48 24 "/>
<path style=" stroke:none;fill-rule:nonzero;fill:rgb(100%,12.54902%,20.392157%);fill-opacity:1;" d="M 48 24 C 48 22.183594 47.796875 20.414062 47.414062 18.714844 L 37.148438 8.449219 L 35.609375 8.921875 L 30.289062 3.765625 L 18.59375 6 L 17.1875 10.78125 L 10.851562 14.851562 L 12.367188 16.367188 L 11.902344 40.4375 L 18.921875 47.460938 C 20.558594 47.8125 22.257812 48 24 48 C 37.253906 48 48 37.253906 48 24 Z M 48 24 "/>
<path style=" stroke:none;fill-rule:nonzero;fill:rgb(55.294118%,54.117647%,58.039216%);fill-opacity:1;" d="M 20.507812 9.40625 L 17.695312 9.40625 L 17.695312 3.765625 L 30.289062 3.765625 L 30.304688 9.394531 L 27.492188 9.398438 L 27.484375 6.578125 L 20.507812 6.578125 Z M 20.507812 9.40625 "/>
<path style=" stroke:none;fill-rule:nonzero;fill:rgb(34.117647%,32.941176%,36.078431%);fill-opacity:1;" d="M 30.304688 9.394531 L 27.492188 9.398438 L 27.488281 8.449219 L 27.484375 6.578125 L 24 6.578125 L 24 3.765625 L 30.289062 3.765625 L 30.300781 8.449219 Z M 30.304688 9.394531 "/>
<path style=" stroke:none;fill-rule:nonzero;fill:rgb(79.215686%,78.039216%,80.392157%);fill-opacity:1;" d="M 14.726562 40.394531 L 33.273438 40.394531 L 33.273438 43.207031 L 14.726562 43.207031 Z M 14.726562 40.394531 "/>
<path style=" stroke:none;fill-rule:nonzero;fill:rgb(55.294118%,54.117647%,58.039216%);fill-opacity:1;" d="M 24 40.394531 L 33.273438 40.394531 L 33.273438 43.207031 L 24 43.207031 Z M 24 40.394531 "/>
<path style=" stroke:none;fill-rule:nonzero;fill:rgb(100%,100%,100%);fill-opacity:1;" d="M 11.902344 13.878906 L 36.097656 13.878906 L 36.097656 40.4375 L 11.902344 40.4375 Z M 11.902344 13.878906 "/>
<path style=" stroke:none;fill-rule:nonzero;fill:rgb(79.215686%,78.039216%,80.392157%);fill-opacity:1;" d="M 24 13.878906 L 36.097656 13.878906 L 36.097656 40.4375 L 24 40.4375 Z M 24 13.878906 "/>
<path style=" stroke:none;fill-rule:nonzero;fill:rgb(79.215686%,78.039216%,80.392157%);fill-opacity:1;" d="M 16.984375 36.351562 C 15.765625 36.351562 14.777344 35.363281 14.777344 34.144531 L 14.777344 21.277344 C 14.777344 20.058594 15.765625 19.070312 16.984375 19.070312 C 18.203125 19.070312 19.191406 20.058594 19.191406 21.277344 L 19.191406 34.144531 C 19.191406 35.363281 18.203125 36.351562 16.984375 36.351562 Z M 16.984375 36.351562 "/>
<path style=" stroke:none;fill-rule:nonzero;fill:rgb(79.215686%,78.039216%,80.392157%);fill-opacity:1;" d="M 24 36.351562 C 22.78125 36.351562 21.792969 35.363281 21.792969 34.144531 L 21.792969 21.277344 C 21.792969 20.058594 22.78125 19.070312 24 19.070312 C 25.21875 19.070312 26.207031 20.058594 26.207031 21.277344 L 26.207031 34.144531 C 26.207031 35.363281 25.21875 36.351562 24 36.351562 Z M 24 36.351562 "/>
<path style=" stroke:none;fill-rule:nonzero;fill:rgb(55.294118%,54.117647%,58.039216%);fill-opacity:1;" d="M 26.207031 21.214844 L 26.207031 34.082031 C 26.207031 35.363281 25.21875 36.351562 24 36.351562 L 24 19.070312 C 24.609375 19.070312 25.160156 19.316406 25.558594 19.71875 C 25.960938 20.117188 26.207031 20.667969 26.207031 21.214844 Z M 26.207031 21.214844 "/>
<path style=" stroke:none;fill-rule:nonzero;fill:rgb(55.294118%,54.117647%,58.039216%);fill-opacity:1;" d="M 31.015625 36.351562 C 29.796875 36.351562 28.808594 35.363281 28.808594 34.144531 L 28.808594 21.277344 C 28.808594 20.058594 29.796875 19.070312 31.015625 19.070312 C 32.234375 19.070312 33.222656 20.058594 33.222656 21.277344 L 33.222656 34.144531 C 33.222656 35.363281 32.234375 36.351562 31.015625 36.351562 Z M 31.015625 36.351562 "/>
<path style=" stroke:none;fill-rule:nonzero;fill:rgb(79.215686%,78.039216%,80.392157%);fill-opacity:1;" d="M 10.851562 8.449219 L 37.148438 8.449219 L 37.148438 14.851562 L 10.851562 14.851562 Z M 10.851562 8.449219 "/>
<path style=" stroke:none;fill-rule:nonzero;fill:rgb(55.294118%,54.117647%,58.039216%);fill-opacity:1;" d="M 24 8.449219 L 37.148438 8.449219 L 37.148438 14.851562 L 24 14.851562 Z M 24 8.449219 "/>
</g>
</svg>
