<?xml version="1.0" encoding="UTF-8"?>
<svg xmlns="http://www.w3.org/2000/svg" xmlns:xlink="http://www.w3.org/1999/xlink" width="48px" height="48px" viewBox="0 0 48 48" version="1.1">
<g id="surface1">
<path style=" stroke:none;fill-rule:nonzero;fill:rgb(86.27451%,84.313725%,19.607843%);fill-opacity:1;" d="M 48 24 C 48 37.253906 37.253906 48 24 48 C 10.746094 48 0 37.253906 0 24 C 0 10.746094 10.746094 0 24 0 C 37.253906 0 48 10.746094 48 24 Z M 48 24 "/>
<path style=" stroke:none;fill-rule:nonzero;fill:rgb(62.745098%,68.627451%,19.607843%);fill-opacity:1;" d="M 9.273438 12.996094 L 9.273438 35.003906 L 22.203125 47.933594 C 22.796875 47.976562 23.394531 48 24 48 C 37.253906 48 48 37.253906 48 24 C 48 23.394531 47.976562 22.796875 47.933594 22.203125 L 38.726562 12.996094 L 29.921875 12.996094 L 26.839844 9.914062 Z M 9.273438 12.996094 "/>
<path style=" stroke:none;fill-rule:nonzero;fill:rgb(0%,41.176471%,25.490196%);fill-opacity:1;" d="M 9.273438 35.003906 L 26.839844 38.085938 L 26.839844 9.914062 L 9.273438 12.996094 Z M 9.273438 35.003906 "/>
<path style=" stroke:none;fill-rule:nonzero;fill:rgb(0%,41.176471%,25.490196%);fill-opacity:1;" d="M 27.695312 12.996094 L 38.726562 12.996094 L 38.726562 35.003906 L 27.695312 35.003906 Z M 27.695312 12.996094 "/>
<path style=" stroke:none;fill-rule:nonzero;fill:rgb(100%,100%,100%);fill-opacity:1;" d="M 27.695312 15.230469 L 30.46875 15.230469 L 30.46875 18.25 L 27.695312 18.25 Z M 27.695312 15.230469 "/>
<path style=" stroke:none;fill-rule:nonzero;fill:rgb(100%,100%,100%);fill-opacity:1;" d="M 27.695312 20.070312 L 30.46875 20.070312 L 30.46875 23.089844 L 27.695312 23.089844 Z M 27.695312 20.070312 "/>
<path style=" stroke:none;fill-rule:nonzero;fill:rgb(100%,100%,100%);fill-opacity:1;" d="M 27.695312 24.910156 L 30.46875 24.910156 L 30.46875 27.929688 L 27.695312 27.929688 Z M 27.695312 24.910156 "/>
<path style=" stroke:none;fill-rule:nonzero;fill:rgb(100%,100%,100%);fill-opacity:1;" d="M 27.695312 29.75 L 30.46875 29.75 L 30.46875 32.769531 L 27.695312 32.769531 Z M 27.695312 29.75 "/>
<path style=" stroke:none;fill-rule:nonzero;fill:rgb(100%,100%,100%);fill-opacity:1;" d="M 31.886719 15.230469 L 36.726562 15.230469 L 36.726562 18.25 L 31.886719 18.25 Z M 31.886719 15.230469 "/>
<path style=" stroke:none;fill-rule:nonzero;fill:rgb(100%,100%,100%);fill-opacity:1;" d="M 31.886719 20.070312 L 36.726562 20.070312 L 36.726562 23.089844 L 31.886719 23.089844 Z M 31.886719 20.070312 "/>
<path style=" stroke:none;fill-rule:nonzero;fill:rgb(100%,100%,100%);fill-opacity:1;" d="M 31.886719 24.910156 L 36.726562 24.910156 L 36.726562 27.929688 L 31.886719 27.929688 Z M 31.886719 24.910156 "/>
<path style=" stroke:none;fill-rule:nonzero;fill:rgb(100%,100%,100%);fill-opacity:1;" d="M 31.886719 29.75 L 36.726562 29.75 L 36.726562 32.769531 L 31.886719 32.769531 Z M 31.886719 29.75 "/>
<path style=" stroke:none;fill-rule:nonzero;fill:rgb(100%,100%,100%);fill-opacity:1;" d="M 21.207031 19.496094 L 19.199219 19.496094 L 17.683594 22.1875 L 16.167969 19.496094 L 14.164062 19.496094 L 16.683594 23.964844 L 13.917969 28.875 L 15.921875 28.875 L 17.683594 25.746094 L 19.449219 28.875 L 21.453125 28.875 L 18.6875 23.964844 Z M 21.207031 19.496094 "/>
</g>
</svg>
