<!-- Generator: Adobe Illustrator 19.0.0, SVG Export Plug-In . SVG Version: 6.00 Build 0)  --><svg version="1.1" id="Layer_1" xmlns="http://www.w3.org/2000/svg" xmlns:xlink="http://www.w3.org/1999/xlink" x="0px" y="0px" viewBox="0 0 512 512" style="enable-background:new 0 0 512 512;" xml:space="preserve" height="128" width="128"><circle style="fill:#84DBFF;" cx="256" cy="256" r="256" /><path style="fill:#31BAFD;" d="M512,256c0-3.172-0.078-6.323-0.193-9.468L350.896,85.621l-15.303,42.448l-42.448-42.448  l-8.892,163.278l-38.009-38.009l-4.274,75.938l-75.936-75.938l-13.467,102.591l-66.946,68.075l126.717,126.717  c14.189,2.439,28.775,3.724,43.661,3.724C397.384,512,512,397.384,512,256z" /><g>	<polygon style="fill:#E6F3FF;" points="370.64,301.109 311.408,301.109 331.152,85.621 350.896,85.621  " />	<polygon style="fill:#E6F3FF;" points="312.891,301.109 253.659,301.109 273.403,85.621 293.147,85.621  " /></g><g>	<polygon style="fill:#324A5E;" points="407.073,381.557 407.073,210.891 326.659,260.849 326.861,260.849 326.861,210.891    246.448,260.849 246.246,260.849 246.246,210.891 165.831,260.849 166.035,260.849 166.035,210.891 85.621,260.849 85.621,381.557     " />	<polygon style="fill:#324A5E;" points="166.035,260.849 166.035,260.724 165.831,260.849  " />	<polygon style="fill:#324A5E;" points="326.861,260.849 326.861,260.724 326.659,260.849  " /></g><polygon style="fill:#2B3B4E;" points="407.073,210.891 326.861,260.724 326.861,260.849 326.659,260.849 326.861,260.724   326.861,210.891 256.002,254.914 256.002,381.557 407.073,381.557 " /><g>	<rect x="349.953" y="304.838" style="fill:#506C7C;" width="39.65" height="39.65" />	<rect x="293.064" y="304.838" style="fill:#506C7C;" width="39.65" height="39.65" /></g><rect x="236.175" y="304.838" style="fill:#617F93;" width="39.65" height="39.65" /><rect x="256" y="304.838" style="fill:#506C7C;" width="19.825" height="39.65" /><g>	<rect x="179.286" y="304.838" style="fill:#617F93;" width="39.65" height="39.65" />	<rect x="113.778" y="304.838" style="fill:#617F93;" width="48.269" height="76.714" /></g><g></g><g></g><g></g><g></g><g></g><g></g><g></g><g></g><g></g><g></g><g></g><g></g><g></g><g></g><g></g></svg>