<?xml version="1.0" encoding="UTF-8"?>
<svg xmlns="http://www.w3.org/2000/svg" xmlns:xlink="http://www.w3.org/1999/xlink" width="48px" height="48px" viewBox="0 0 48 48" version="1.1">
<g id="surface1">
<path style=" stroke:none;fill-rule:nonzero;fill:rgb(7.843137%,40%,17.647059%);fill-opacity:1;" d="M 47.9375 25.710938 C 47.976562 25.148438 48 24.574219 48 24 C 48 10.746094 37.253906 0 24 0 C 10.746094 0 0 10.746094 0 24 C 0 35.039062 7.457031 44.339844 17.605469 47.136719 Z M 47.9375 25.710938 "/>
<path style=" stroke:none;fill-rule:nonzero;fill:rgb(3.921569%,24.313725%,10.196078%);fill-opacity:1;" d="M 47.9375 25.710938 L 29.53125 7.304688 L 11.164062 40.695312 L 17.605469 47.136719 C 19.644531 47.699219 21.785156 48 24 48 C 36.679688 48 47.058594 38.167969 47.9375 25.710938 Z M 47.9375 25.710938 "/>
<path style=" stroke:none;fill-rule:nonzero;fill:rgb(100%,100%,100%);fill-opacity:1;" d="M 26.09375 31.304688 L 23.972656 7.304688 L 11.164062 7.304688 L 11.164062 29.21875 Z M 26.09375 31.304688 "/>
<path style=" stroke:none;fill-rule:nonzero;fill:rgb(90.980392%,90.196078%,90.196078%);fill-opacity:1;" d="M 36.835938 29.21875 L 36.835938 14.609375 L 31.617188 12.523438 L 29.53125 7.304688 L 23.972656 7.304688 L 24.007812 31.304688 Z M 36.835938 29.21875 "/>
<path style=" stroke:none;fill-rule:nonzero;fill:rgb(100%,100%,100%);fill-opacity:1;" d="M 29.53125 14.609375 L 29.53125 7.304688 L 36.835938 14.609375 Z M 29.53125 14.609375 "/>
<path style=" stroke:none;fill-rule:nonzero;fill:rgb(9.019608%,56.078431%,23.529412%);fill-opacity:1;" d="M 11.164062 29.21875 L 36.835938 29.21875 L 36.835938 40.695312 L 11.164062 40.695312 Z M 11.164062 29.21875 "/>
<path style=" stroke:none;fill-rule:nonzero;fill:rgb(100%,100%,100%);fill-opacity:1;" d="M 22.105469 37.441406 L 20.59375 37.441406 L 19.523438 35.859375 L 18.449219 37.441406 L 16.980469 37.441406 L 18.757812 34.898438 L 17.097656 32.472656 L 18.566406 32.472656 L 19.523438 33.921875 L 20.480469 32.472656 L 21.964844 32.472656 L 20.324219 34.84375 Z M 22.105469 37.441406 "/>
<path style=" stroke:none;fill-rule:nonzero;fill:rgb(100%,100%,100%);fill-opacity:1;" d="M 26.199219 36.382812 L 26.199219 37.441406 L 22.828125 37.441406 L 22.828125 32.472656 L 24.09375 32.472656 L 24.09375 36.382812 Z M 26.199219 36.382812 "/>
<path style=" stroke:none;fill-rule:nonzero;fill:rgb(100%,100%,100%);fill-opacity:1;" d="M 30.847656 32.96875 L 30.371094 33.957031 C 29.847656 33.652344 29.1875 33.4375 28.78125 33.4375 C 28.457031 33.4375 28.234375 33.558594 28.234375 33.800781 C 28.234375 34.660156 30.859375 34.167969 30.859375 35.964844 C 30.859375 36.957031 29.980469 37.484375 28.875 37.484375 C 28.042969 37.484375 27.191406 37.171875 26.605469 36.6875 L 27.09375 35.714844 C 27.605469 36.164062 28.371094 36.460938 28.886719 36.460938 C 29.285156 36.460938 29.535156 36.3125 29.535156 36.027344 C 29.535156 35.148438 26.910156 35.671875 26.910156 33.914062 C 26.910156 33 27.695312 32.417969 28.886719 32.417969 C 29.605469 32.417969 30.335938 32.636719 30.847656 32.96875 Z M 30.847656 32.96875 "/>
</g>
</svg>
