<?xml version="1.0" encoding="UTF-8"?>
<svg xmlns="http://www.w3.org/2000/svg" xmlns:xlink="http://www.w3.org/1999/xlink" width="48px" height="48px" viewBox="0 0 48 48" version="1.1">
<g id="surface1">
<path style=" stroke:none;fill-rule:nonzero;fill:rgb(35.294118%,41.176471%,89.803922%);fill-opacity:1;" d="M 48 24 C 48 37.253906 37.253906 48 24 48 C 10.746094 48 0 37.253906 0 24 C 0 10.746094 10.746094 0 24 0 C 37.253906 0 48 10.746094 48 24 Z M 48 24 "/>
<path style=" stroke:none;fill-rule:nonzero;fill:rgb(22.745098%,30.196078%,88.235294%);fill-opacity:1;" d="M 47.640625 28.148438 L 26.878906 7.382812 L 21.027344 13.234375 L 24.855469 17.066406 L 15.222656 22.015625 L 22.714844 29.507812 L 25.074219 26.246094 L 24 37.5 L 15.222656 40.617188 L 22.5625 47.957031 C 23.039062 47.984375 23.515625 48 24 48 C 35.839844 48 45.675781 39.425781 47.640625 28.148438 Z M 47.640625 28.148438 "/>
<path style=" stroke:none;fill-rule:nonzero;fill:rgb(100%,100%,100%);fill-opacity:1;" d="M 23.953125 13.234375 L 21.027344 13.234375 L 21.027344 7.382812 L 23.953125 7.382812 L 24.890625 10.308594 Z M 23.953125 13.234375 "/>
<path style=" stroke:none;fill-rule:nonzero;fill:rgb(100%,100%,100%);fill-opacity:1;" d="M 26.023438 27.664062 L 23.953125 16.164062 L 15.222656 16.164062 L 15.222656 22.015625 L 21.074219 22.015625 L 21.074219 34.765625 L 15.222656 34.765625 L 15.222656 40.617188 L 23.953125 40.617188 Z M 26.023438 27.664062 "/>
<path style=" stroke:none;fill-rule:nonzero;fill:rgb(89.019608%,91.764706%,93.333333%);fill-opacity:1;" d="M 26.925781 34.765625 L 26.925781 16.164062 L 23.953125 16.164062 L 23.953125 40.617188 L 32.777344 40.617188 L 32.777344 34.765625 Z M 26.925781 34.765625 "/>
<path style=" stroke:none;fill-rule:nonzero;fill:rgb(89.019608%,91.764706%,93.333333%);fill-opacity:1;" d="M 23.953125 7.382812 L 26.878906 7.382812 L 26.878906 13.234375 L 23.953125 13.234375 Z M 23.953125 7.382812 "/>
</g>
</svg>
