<svg id="Layer_1" enable-background="new 0 0 512 512" height="52" viewBox="0 0 512 512" width="52" xmlns="http://www.w3.org/2000/svg"><path d="m194.737 290.347h124.134v128.852h-124.134z" fill="#f9d7aa" /><g><path d="m194.084 290.347v21.006s24.319 55.517 73.372 55.517c23.543 0 39.998-9.247 50.762-18.863v-57.66z" fill="#e8ac6b" /></g><path d="m448.379 455.287c-2.31-57.558-46.602-70.852-73.197-73.627-11.54-1.204-58.555-.428-58.555-.428-1.126 19.269-24.024 37.723-59.824 38.415-35.8-.692-61.779-23.498-61.779-38.415 0 0-45.06-.776-56.599.428-26.595 2.775-70.887 16.069-73.197 73.627-1.988 14.354 0 34.859 0 34.859s64.734 19.813 187.084 20.474c.911.014 8.072.014 8.983 0 122.35-.661 187.084-20.474 187.084-20.474s1.987-20.505 0-34.859z" fill="#12273f" /><g><path d="m316.628 381.197c-1.126 19.269-24.023 29.605-59.824 30.297-35.8-.692-61.779-15.38-61.779-30.297 0 0-5.76-.099-13.675-.171l50.311 129.258c6.693.159 13.571.264 20.651.302.911.014 8.072.014 8.983 0 6.642-.036 13.104-.132 19.406-.274l50.879-129.292c-8.599.073-14.952.177-14.952.177z" fill="#8ac1d6" /></g><g fill="#f9d7aa"><path d="m358.877 200.587 8.767-28.047s15.426-4.282 23.562 12.311-13.154 50.686-31.519 53.551c-5.092-12.979-.81-37.815-.81-37.815z" /><path d="m153.724 200.587-8.767-28.047s-15.426-4.282-23.562 12.311 13.154 50.686 31.519 53.551c5.092-12.979.81-37.815.81-37.815z" /><path d="m367.03 200.664c.039-1.172.059-2.343.059-3.515 0-72.836 21.254-155.014-108.043-156.221-.594-.012-2.889-.028-2.895-.028s-2.301.017-2.895.028c-129.297 1.207-108.043 83.385-108.043 156.221 0 1.172.02 2.344.059 3.515s-.13 54.205 7.878 67.756 55.437 75.483 100.402 75.483c.042-.042 5.235-.044 5.279 0 44.965 0 92.395-61.931 100.402-75.483 8.008-13.551 7.877-67.756 7.877-67.756z" /></g><path d="m256.478 425.214-20.287 23.148 10.225 62.239h20.123l10.226-62.239z" fill="#091e26" /><path d="m273.909 415.803c0-10.787-10.151-14.506-17.427-14.52l-.001-.001c-.007 0-.014.001-.021.001s-.014-.001-.021-.001l-.001.001c-7.276.014-17.427 3.733-17.427 14.52 0 9.653 9.434 17.887 15.735 19.54.435.201 2.993.201 3.427 0 6.302-1.653 15.736-9.887 15.736-19.54z" fill="#091e26" /><path d="m256.478 401.025 62.393-41.547 13.904 19.253-38.149 54.004z" fill="#b3edff" /><path d="m256.478 401.025-61.741-41.547-14.556 19.253 38.148 54.004z" fill="#b3edff" /><path d="m180.181 378.731-19.923 1.458s1.5 20.603 3.091 53.562h25.466l-19.749 19.337 47.539 56.76 15.53.528 17.703.185z" fill="#45738d" /><path d="m332.775 378.731 20.425 1.458s-1.5 20.603-3.091 53.562c-15.855 0-25.466 0-25.466 0l19.749 19.337-47.539 56.76-15.467.485-17.766.228z" fill="#45738d" /><path d="m132.199 173.769c7.749-1.715 15.29-1.752 23.209 11.8.527-20.943-3.148-36.958 4.849-41.886 5.534 6.16 5.534 13.551 5.534 13.551 9.855-16.015 27.02-28.334 28.293-56.669 8.665 16.015 40.031 61.597 124.134 52.973-7.06-8.624-9.809-18.479-9.809-18.479s14.651 13.517 37.243 16.015c-1.232-4.928 0-17.247 0-17.247s15.13 10.969 17.919 51.741c4.073-13.029 8.373-15.536 14.23-12.74 2.961-10.666 23.359-96.203-13.67-131.929-39.125-37.749-147.832-65.826-193.413 0-24.638 2.998-49.937 22.516-38.519 132.87z" fill="#240703" /></svg>