<svg id="Capa_1" enable-background="new 0 0 512 512" height="128" viewBox="0 0 512 512" width="128" xmlns="http://www.w3.org/2000/svg"><g><circle id="XMLID_8_" cx="256" cy="256" fill="#33af8b" r="256" /><path d="m224.931 91.007-160.4 312.343 85.967 85.967c32.17 14.569 67.888 22.683 105.502 22.683 141.385 0 256-114.615 256-256 0-27.555-4.371-54.086-12.428-78.957l-52.103-52.102-116.536 72.068z" fill="#2c8473" /><g><path d="m64.531 152.885v250.464l76.587-27.944 15.835-111.26-15.835-139.204z" fill="#ffed85" /><path d="m217.706 152.885 12.926 111.26-12.926 139.204-76.588-27.944v-250.464z" fill="#ffd04d" /><path d="m217.706 152.885v250.464l76.588-27.944 16.481-125.468-16.481-124.996z" fill="#ffed85" /><g><g><g><path d="m310.775 249.937-16.481-124.996-38.294 13.972v250.464l38.294-13.972z" fill="#ffd04d" /></g></g></g><path d="m370.882 152.885 16.157 102.422-16.157 148.042-76.588-27.944v-250.464z" fill="#ffaa3b" /><path d="m370.882 152.885v250.464l76.587-27.944v-250.464z" fill="#ffd04d" /></g><path d="m242.162 136.983c0-38.635-31.32-69.954-69.954-69.954-38.635 0-69.954 31.32-69.954 69.954 0 19.905 8.327 37.853 21.671 50.592l-.031-.003 48.314 63.739 48.314-63.739-.031.003c13.344-12.738 21.671-30.687 21.671-50.592z" fill="#eb5569" /><circle cx="172.208" cy="136.983" fill="#faf8f8" r="31.614" /></g></svg>