<!-- Generator: Adobe Illustrator 19.0.0, SVG Export Plug-In . SVG Version: 6.00 Build 0)  --><svg version="1.1" id="Capa_1" xmlns="http://www.w3.org/2000/svg" xmlns:xlink="http://www.w3.org/1999/xlink" x="0px" y="0px" viewBox="0 0 512 512" style="enable-background:new 0 0 512 512;" xml:space="preserve" height="52" width="52"><g>	<path style="fill:#BDE5F8;" d="M286.281,304.363l71.743-124.261c29.308-50.764,11.753-116.271-39.011-145.578   C268.25,5.216,202.744,22.768,173.436,73.53L98.834,202.739l178.428,103.022C280.206,305.266,283.213,304.799,286.281,304.363z" />	<path style="fill:#F63D53;" d="M277.263,305.762L98.834,202.739L24.233,331.955c-29.309,50.764-11.755,116.271,39.01,145.578   c47.939,27.678,109.021,13.558,140.354-30.852l0.001-104.151C203.598,326.861,233.183,313.167,277.263,305.762z" />	<g>		<path style="fill:#E1E6E9;" d="M277.263,305.762c-44.08,7.405-73.665,21.1-73.665,36.769c0,15.101,27.473,28.365,68.915,35.936    l162.174-71.577c-23.508-4.42-51.647-6.989-81.889-6.989c-23.901,0-46.49,1.607-66.516,4.463    C283.213,304.799,280.206,305.266,277.263,305.762z" />		<path style="fill:#E1E6E9;" d="M434.687,306.891l-162.174,71.577c23.179,4.236,50.728,6.693,80.285,6.693    c82.4,0,149.2-19.085,149.2-42.63C501.998,327.625,475.232,314.509,434.687,306.891z" />	</g>	<path style="fill:#BCCBD3;" d="M501.998,342.53c0,23.545-66.799,42.63-149.199,42.63c-29.557,0-57.106-2.457-80.285-6.693   c-41.442-7.571-68.915-20.837-68.916-35.936v104.151v2.42c0,23.545,66.8,42.63,149.202,42.63c82.4,0,149.201-19.085,149.201-42.63   L501.998,342.53z" /></g><path d="M198.745,99.688c1.575,0.909,3.294,1.342,4.99,1.342c3.456,0,6.818-1.794,8.669-5.002  c8.291-14.362,21.837-24.565,38.142-28.728c5.351-1.367,8.58-6.812,7.214-12.163c-1.367-5.35-6.806-8.581-12.163-7.214  c-21.566,5.508-39.506,19.041-50.512,38.106C192.324,90.812,193.963,96.927,198.745,99.688z" /><path d="M276.074,66.17c0.578,0.101,1.153,0.149,1.722,0.149c4.739,0,8.948-3.385,9.826-8.212  c0.987-5.434-2.616-10.639-8.049-11.627c-0.15-0.027-0.301-0.052-0.461-0.076c-5.452-0.836-10.519,2.903-11.365,8.353  C266.903,60.196,270.646,65.297,276.074,66.17z" /><path d="M512,342.53c0-16.69-17.172-30.058-51.036-39.733c-7.361-2.103-15.322-3.966-23.761-5.578  c-0.477-0.124-0.964-0.212-1.457-0.265c-24.6-4.586-53.165-7.053-82.946-7.053c-16.499,0-32.614,0.767-47.904,2.22l61.789-107.018  c15.51-26.865,19.602-58.267,11.521-88.424c-8.081-30.155-27.327-55.304-54.191-70.813c-55.667-32.138-127.1-13-159.237,42.665  L90.195,197.708c-0.007,0.011-0.015,0.02-0.021,0.031c-0.006,0.011-0.011,0.022-0.017,0.033L15.573,326.955  C0.062,353.82-4.029,385.222,4.051,415.379c8.08,30.155,27.326,55.305,54.191,70.813c17.775,10.262,37.736,15.538,57.982,15.538  c8.53,0,17.112-0.936,25.6-2.832c22.589-5.043,42.897-16.489,58.644-32.805c7.914,9.019,22.642,16.642,44.08,22.766  c29.049,8.299,67.491,12.87,108.248,12.87c40.756,0,79.199-4.571,108.247-12.87c33.809-9.659,50.952-23.036,50.952-39.759v-106.51  C511.998,342.57,512,342.551,512,342.53z M492.001,342.514c0,0.006-0.001,0.011-0.001,0.017v0.027  c-0.041,2.831-6.654,11.94-36.529,20.478c-27.366,7.817-63.829,12.124-102.671,12.124c-15.063,0-29.757-0.655-43.713-1.904  l126.717-55.928c6.953,1.388,13.548,2.95,19.666,4.698C485.385,330.572,491.976,339.696,492.001,342.514z M398.389,311.98  l-127.03,56.066c-7.536-1.463-14.651-3.134-21.23-5.013c-29.969-8.563-36.531-17.705-36.531-20.505  c0-2.8,6.563-11.942,36.532-20.506c27.366-7.818,63.829-12.125,102.67-12.125C368.541,309.899,383.876,310.618,398.389,311.98z   M182.096,78.53c26.624-46.115,85.803-61.97,131.919-35.346c22.238,12.839,38.175,33.676,44.874,58.671  c6.698,24.996,3.316,51.009-9.522,73.248L280.021,295.21c-0.271,0.042-0.536,0.089-0.807,0.132L112.494,199.08L182.096,78.53z   M68.243,468.873c-22.239-12.839-38.176-33.676-44.874-58.671c-6.698-24.996-3.315-51.009,9.523-73.248l69.603-120.556  l147.233,85.011c-1.725,0.451-3.429,0.911-5.094,1.387c-33.829,9.665-50.997,23.016-51.034,39.68c0,0.019-0.003,0.035-0.003,0.054  V443.38C164.593,481.788,110.169,493.081,68.243,468.873z M455.552,469.63c-27.312,7.803-63.804,12.101-102.754,12.101  s-75.443-4.298-102.755-12.101c-29.9-8.542-36.447-17.716-36.447-20.53v-79.266c7.979,4.649,18.335,8.798,31.039,12.428  c7.846,2.242,16.388,4.202,25.448,5.884c0.44,0.111,0.886,0.194,1.339,0.244c24.243,4.4,52.225,6.768,81.377,6.768  c40.647,0,79.061-4.58,108.164-12.895c12.702-3.629,23.056-7.777,31.036-12.426v79.264C492,451.914,485.452,461.089,455.552,469.63z  " /><g></g><g></g><g></g><g></g><g></g><g></g><g></g><g></g><g></g><g></g><g></g><g></g><g></g><g></g><g></g></svg>