<!-- Generator: Adobe Illustrator 19.0.0, SVG Export Plug-In . SVG Version: 6.00 Build 0)  --><svg version="1.1" id="Capa_1" xmlns="http://www.w3.org/2000/svg" xmlns:xlink="http://www.w3.org/1999/xlink" x="0px" y="0px" viewBox="0 0 512.007 512.007" style="enable-background:new 0 0 512.007 512.007;" xml:space="preserve" height="128" width="128"><circle style="fill:#FF4460;" cx="256.003" cy="256.003" r="256.003" /><path style="fill:#AB2C39;" d="M246.346,97.228c-25.84,25.84-25.84,67.735,0,93.576l0,0l-48.99-48.99  c-1.288-1.546-2.637-3.038-4.058-4.459c-11.974-11.974-28.516-19.38-46.788-19.38l0,0c-36.544,0-66.167,29.625-66.167,66.167  c0,18.271,7.406,34.813,19.379,46.787l56.206,56.206c-25.388,25.874-25.249,67.424,0.439,93.113l0,0  c0.001,0.001,0.001,0.001,0.002,0.002l129.955,129.955c122.87-14.503,219.097-116.007,225.351-241.223L339.924,97.23  c-0.001-0.001-0.001-0.001-0.002-0.002l0,0C314.082,71.389,272.187,71.389,246.346,97.228z" /><circle style="fill:#E4F3F6;" cx="146.512" cy="184.143" r="66.162" /><path style="fill:#8ECECF;" d="M146.51,117.974V250.31c36.544,0,66.167-29.625,66.167-66.168S183.053,117.974,146.51,117.974z" /><rect x="136.988" y="133.478" style="fill:#FFFFFF;" width="19.046" height="101.329" /><circle style="fill:#E4F3F6;" cx="203.15" cy="333.464" r="66.162" /><path style="fill:#8ECECF;" d="M249.942,286.673l-93.576,93.576c25.84,25.84,67.735,25.84,93.576,0  C275.783,354.409,275.783,312.513,249.942,286.673z" /><rect x="193.63" y="282.799" transform="matrix(-0.7071 -0.7071 0.7071 -0.7071 111.0091 712.908)" style="fill:#FFFFFF;" width="19.046" height="101.328" /><circle style="fill:#E4F3F6;" cx="365.495" cy="225.658" r="66.162" /><path style="fill:#8ECECF;" d="M431.658,225.662H299.322c0,36.544,29.625,66.167,66.168,66.167S431.658,262.206,431.658,225.662z" /><rect x="314.831" y="216.144" style="fill:#FFFFFF;" width="101.329" height="19.046" /><circle style="fill:#E4F3F6;" cx="299.53" cy="369.38" r="66.162" /><path style="fill:#8ECECF;" d="M299.527,303.21v132.336c36.544,0,66.167-29.625,66.167-66.168S336.071,303.21,299.527,303.21z" /><rect x="290.006" y="318.715" style="fill:#FFFFFF;" width="19.046" height="101.329" /><circle style="fill:#E4F3F6;" cx="293.132" cy="144.017" r="66.162" /><path style="fill:#8ECECF;" d="M339.922,97.228l-93.576,93.576c25.84,25.84,67.735,25.84,93.576,0  C365.761,164.963,365.761,123.068,339.922,97.228z" /><rect x="283.607" y="93.348" transform="matrix(-0.7071 -0.7071 0.7071 -0.7071 398.5726 453.1187)" style="fill:#FFFFFF;" width="19.046" height="101.328" /><g></g><g></g><g></g><g></g><g></g><g></g><g></g><g></g><g></g><g></g><g></g><g></g><g></g><g></g><g></g></svg>