<!-- Generator: Adobe Illustrator 19.0.0, SVG Export Plug-In . SVG Version: 6.00 Build 0)  --><svg version="1.1" id="Capa_1" xmlns="http://www.w3.org/2000/svg" xmlns:xlink="http://www.w3.org/1999/xlink" x="0px" y="0px" viewBox="0 0 512 512" style="enable-background:new 0 0 512 512;" xml:space="preserve" height="32" width="32"><circle style="fill:#948FE1;" cx="256" cy="256" r="256" /><path style="fill:#6E61B7;" d="M512,256c0-9.938-0.586-19.737-1.688-29.379L401.166,117.475L256,55.333l-145.166,62.141  c0,0,0,141.6,0,193.554c0,28.497,7.974,52.397,34.754,77.247l123.398,123.398C404.337,504.911,512,393.03,512,256z" /><path style="fill:#004EB2;" d="M256,55.333l-145.166,62.141c0,0,0,141.6,0,193.554S137.324,399.656,256,454.667  c118.676-55.01,145.166-91.684,145.166-143.638s0-193.554,0-193.554L256,55.333z" /><path style="fill:#002D6B;" d="M401.17,117.47c0,0,0,141.6,0,193.56c0,51.95-26.49,88.63-145.17,143.64V55.33L401.17,117.47z" /><path style="fill:#FFFFFF;" d="M320.497,245.102h-22.804v-54.981c0-22.99-18.704-41.694-41.694-41.694s-41.694,18.704-41.694,41.694  v54.981h-22.804v-54.981c0-35.564,28.933-64.497,64.497-64.497s64.497,28.934,64.497,64.497v54.981H320.497z" /><path style="fill:#FFF5CB;" d="M320.5,190.12v54.98h-22.81v-54.98c0-22.99-18.7-41.69-41.69-41.69v-22.81  C291.56,125.62,320.5,154.56,320.5,190.12z" /><path style="fill:#FFB84D;" d="M272.253,381.706h-32.506c-38.936,0-70.5-31.564-70.5-70.5v-73.262h173.506v73.262  C342.753,350.142,311.189,381.706,272.253,381.706z" /><path style="fill:#FF9A00;" d="M342.75,237.94v73.27c0,38.93-31.56,70.5-70.5,70.5H256V237.94H342.75z" /><path style="fill:#FF8900;" d="M281.387,293.63c0-14.021-11.366-25.387-25.387-25.387s-25.387,11.366-25.387,25.387  c0,9.395,5.108,17.592,12.693,21.982v32.6h25.387v-32.6C276.279,311.222,281.387,303.025,281.387,293.63z" /><path style="fill:#C06100;" d="M281.39,293.63c0,9.39-5.11,17.59-12.7,21.98v32.6H256v-79.97  C270.02,268.24,281.39,279.61,281.39,293.63z" /><g></g><g></g><g></g><g></g><g></g><g></g><g></g><g></g><g></g><g></g><g></g><g></g><g></g><g></g><g></g></svg>