<!-- Generator: Adobe Illustrator 19.0.0, SVG Export Plug-In . SVG Version: 6.00 Build 0)  --><svg version="1.1" id="Layer_1" xmlns="http://www.w3.org/2000/svg" xmlns:xlink="http://www.w3.org/1999/xlink" x="0px" y="0px" viewBox="0 0 512 512" style="enable-background:new 0 0 512 512;" xml:space="preserve" height="32" width="32"><circle style="fill:#35CCFF;" cx="256" cy="256" r="256" /><path style="fill:#00BAFF;" d="M510.278,285.675L333.002,108.397L66.372,353.421l156.441,156.441  c10.864,1.405,21.94,2.138,33.189,2.138C387.346,512,495.569,413.077,510.278,285.675z" /><rect x="66.372" y="108.399" style="fill:#FFCF35;" width="266.636" height="232.9" /><rect x="198.766" y="108.397" style="fill:#FFB344;" width="134.237" height="232.9" /><polygon style="fill:#AE4E32;" points="263.356,220.85 234.034,191.528 204.714,220.85 217.352,220.85 217.352,280.774   250.716,280.774 250.716,220.85 " /><g>	<polygon style="fill:#FF6838;" points="194.66,220.85 165.34,191.528 136.018,220.85 148.656,220.85 148.656,280.774    182.022,280.774 182.022,220.85  " />	<rect x="136.861" y="289.495" style="fill:#FF6838;" width="125.662" height="20.944" /></g><rect x="198.542" y="289.495" style="fill:#AE4E32;" width="63.974" height="20.944" /><path style="fill:#F1333F;" d="M404.427,207.986h-71.425v133.315h133.315v-60.494c0-3.996-1.329-7.877-3.777-11.035l-41.641-53.713  C416.952,210.966,410.871,207.986,404.427,207.986z" /><path style="fill:#B9EAFF;" d="M401.984,216.695h-59.892v53.279h107.056l-37.714-48.647  C409.169,218.405,405.68,216.695,401.984,216.695z" /><rect x="66.372" y="331.197" style="fill:#4B7689;" width="399.946" height="22.219" /><g>	<rect x="198.818" y="331.197" style="fill:#175D76;" width="267.498" height="22.219" />	<circle style="fill:#175D76;" cx="133.034" cy="352.418" r="33.328" /></g><g>	<circle style="fill:#00263F;" cx="133.034" cy="352.418" r="17.17" />	<circle style="fill:#00263F;" cx="399.653" cy="352.418" r="33.328" /></g><circle style="fill:#000B11;" cx="399.653" cy="352.418" r="17.17" /><rect x="170.098" y="108.399" style="fill:#FFECB3;" width="59.182" height="59.182" /><rect x="198.542" y="108.399" style="fill:#FFD863;" width="30.741" height="59.182" /><g></g><g></g><g></g><g></g><g></g><g></g><g></g><g></g><g></g><g></g><g></g><g></g><g></g><g></g><g></g></svg>