<svg id="Capa_1" enable-background="new 0 0 512 512" height="128" viewBox="0 0 512 512" width="128" xmlns="http://www.w3.org/2000/svg"><g><g><g><g><circle cx="256" cy="256" fill="#ff5d6e" r="256" /></g></g></g><path d="m507.892 301.889-87.617-87.617-81.11 27.224-100.142-100.141-127.229 40.209 67.251 67.251-79.32 121.83 140.881 140.881c5.094.302 10.224.474 15.394.474 125.719 0 230.266-90.626 251.892-210.111z" fill="#ef296a" /><g><g><g><path d="m342.088 370.645h-58.861l-19.325-14.599v-141.774h78.186l49.044 78.187z" fill="#b8d7fd" /><path d="m342.088 214.272h78.187v156.373h-78.187z" fill="#99c6fc" /></g><path d="m302.995 283.175c-16.437 0-29.809-13.372-29.809-29.81 0-16.437 13.372-29.809 29.809-29.809s29.809 13.372 29.809 29.809-13.372 29.81-29.809 29.81z" fill="#99c6fc" /><path d="m302.995 273.891c-11.318 0-20.525-9.208-20.525-20.526s9.207-20.525 20.525-20.525 20.525 9.207 20.525 20.525-9.207 20.526-20.525 20.526z" fill="#fff" /><path d="m302.995 361.361c-16.437 0-29.809-13.372-29.809-29.81 0-16.437 13.372-29.809 29.809-29.809s29.809 13.372 29.809 29.809c0 16.438-13.372 29.81-29.809 29.81z" fill="#99c6fc" /><path d="m381.181 283.175c-16.437 0-29.809-13.372-29.809-29.81 0-16.437 13.372-29.809 29.809-29.809s29.809 13.372 29.809 29.809c.001 16.437-13.372 29.81-29.809 29.81z" fill="#79b6fc" /><path d="m381.181 361.361c-16.437 0-29.809-13.372-29.809-29.81 0-16.437 13.372-29.809 29.809-29.809s29.809 13.372 29.809 29.809c.001 16.438-13.372 29.81-29.809 29.81z" fill="#79b6fc" /><path d="m302.995 273.891c9.409 0 17.354-6.367 19.768-15.017l-19.768-5.509-19.768 5.509c2.414 8.65 10.359 15.017 19.768 15.017z" fill="#fff" /><path d="m302.995 232.84c-9.41 0-17.355 6.366-19.768 15.017l19.768 5.509 19.768-5.509c-2.413-8.65-10.359-15.017-19.768-15.017z" fill="#fff" /><path d="m282.47 253.365c0 1.908.267 3.755.757 5.509h39.536c.49-1.754.757-3.601.757-5.509s-.267-3.754-.757-5.508h-39.537c-.489 1.754-.756 3.6-.756 5.508z" fill="#e9edf0" /><path d="m317.508 346.065c6.653-6.653 7.769-16.773 3.36-24.596l-17.873 10.083-10.083 17.873c7.823 4.41 17.943 3.294 24.596-3.36z" fill="#fff" /><path d="m288.481 317.038c-6.654 6.654-7.77 16.773-3.36 24.597l17.873-10.083 10.083-17.873c-7.822-4.41-17.942-3.294-24.596 3.359z" fill="#fff" /><path d="m288.481 346.065c1.35 1.349 2.844 2.466 4.431 3.36l27.956-27.956c-.894-1.587-2.011-3.081-3.36-4.431-1.349-1.349-2.844-2.465-4.43-3.36l-27.957 27.957c.895 1.587 2.011 3.081 3.36 4.43z" fill="#e9edf0" /><g><path d="m366.668 267.879c6.653 6.653 16.773 7.769 24.596 3.36l-10.083-17.873-17.873-10.083c-4.409 7.823-3.293 17.943 3.36 24.596z" fill="#e9edf0" /><path d="m395.695 238.852c-6.654-6.654-16.773-7.77-24.597-3.36l10.083 17.873 17.874 10.083c4.41-7.823 3.293-17.942-3.36-24.596z" fill="#e9edf0" /><path d="m366.668 238.852c-1.35 1.35-2.466 2.844-3.36 4.431l27.956 27.956c1.587-.894 3.081-2.011 4.431-3.36 1.349-1.349 2.465-2.844 3.36-4.43l-27.957-27.957c-1.586.894-3.081 2.01-4.43 3.36z" fill="#d8dfe6" /></g><g><path d="m360.67 331.552c0 9.409 6.367 17.354 15.017 19.768l5.509-19.768-5.509-19.768c-8.651 2.414-15.017 10.359-15.017 19.768z" fill="#e9edf0" /><path d="m401.72 331.552c0-9.41-6.366-17.355-15.017-19.768l-5.509 19.768 5.509 19.768c8.65-2.413 15.017-10.359 15.017-19.768z" fill="#e9edf0" /><path d="m381.195 311.027c-1.908 0-3.755.267-5.509.757v39.536c1.754.49 3.601.757 5.509.757s3.754-.267 5.508-.757v-39.537c-1.754-.489-3.6-.756-5.508-.756z" fill="#d8dfe6" /></g></g><g><g><path d="m175.409 204.204h-46.826v-28.047h46.826l29.372 18.125z" fill="#e9edf0" /><path d="m175.409 176.157h46.826v28.047h-46.826z" fill="#d8dfe6" /></g><g><path d="m175.409 370.645h-75.684v-142.325l28.858-26.988h46.826l36.291 79.776z" fill="#fff" /><path d="m251.093 357.59-36.983 13.055h-38.701v-169.313h46.826l28.858 26.988z" fill="#e9edf0" /></g><g><path d="m175.409 181.564h-63.614v-40.209h63.614l39.903 20.105z" fill="#77dc5a" /><path d="m175.409 141.355h63.614v40.21h-63.614z" fill="#5bc83e" /></g><g><path d="m197.019 265.827-15.485-6.552-6.125-27.9h-12.058v22.394h-22.394v24.116h22.394v22.394h12.058l6.125-27.901z" fill="#b5e44e" /><path d="m209.861 253.769h-22.394v-22.394h-12.058v68.904h12.058v-22.394h22.394z" fill="#77dc5a" /></g><g><path d="m175.409 339.873h-39.903v-27.071h39.903l25.029 13.535z" fill="#6d7277" /><path d="m175.409 312.802h39.903v27.07h-39.903z" fill="#474d52" /></g></g><g><path d="m214.11 370.645c-12.17 0-22.036-9.866-22.036-22.036s9.866-22.036 22.036-22.036h36.983l21.686 22.036-21.686 22.036z" fill="#a365d9" /><path d="m288.076 326.574c12.17 0 22.036 9.866 22.036 22.036s-9.866 22.036-22.036 22.036h-36.983v-44.071h36.983z" fill="#ffd428" /></g></g></g></svg>