<?xml version="1.0" encoding="UTF-8"?>
<svg xmlns="http://www.w3.org/2000/svg" xmlns:xlink="http://www.w3.org/1999/xlink" width="48px" height="48px" viewBox="0 0 48 48" version="1.1">
<g id="surface1">
<path style=" stroke:none;fill-rule:nonzero;fill:rgb(98.431373%,94.901961%,29.019608%);fill-opacity:1;" d="M 48 24 C 48 37.253906 37.253906 48 24 48 C 10.746094 48 0 37.253906 0 24 C 0 10.746094 10.746094 0 24 0 C 37.253906 0 48 10.746094 48 24 Z M 48 24 "/>
<path style=" stroke:none;fill-rule:nonzero;fill:rgb(98.431373%,81.960784%,25.490196%);fill-opacity:1;" d="M 24.691406 47.988281 C 37.628906 47.621094 48 37.023438 48 24 C 48 23.300781 47.96875 22.613281 47.910156 21.929688 L 36.988281 11.011719 L 26.332031 17.539062 L 20.773438 11.976562 L 11.976562 20.769531 L 18.53125 27.324219 L 14.472656 37.769531 Z M 24.691406 47.988281 "/>
<path style=" stroke:none;fill-rule:nonzero;fill:rgb(38.823529%,38.823529%,38.823529%);fill-opacity:1;" d="M 34.328125 37.226562 L 34.453125 37.167969 L 34.664062 36.957031 L 29.523438 31.816406 L 27.839844 36.558594 C 29.683594 37.972656 32.195312 38.253906 34.328125 37.226562 Z M 34.328125 37.226562 "/>
<path style=" stroke:none;fill-rule:nonzero;fill:rgb(26.27451%,26.27451%,26.27451%);fill-opacity:1;" d="M 26.441406 30.570312 L 30.574219 26.441406 L 26.046875 21.917969 L 21.914062 26.046875 Z M 26.441406 30.570312 "/>
<path style=" stroke:none;fill-rule:nonzero;fill:rgb(26.27451%,26.27451%,26.27451%);fill-opacity:1;" d="M 27.226562 36.023438 C 27.421875 36.214844 27.625 36.394531 27.839844 36.558594 L 33.347656 31.050781 L 36.957031 34.664062 L 37.167969 34.453125 L 37.226562 34.328125 C 38.375 31.949219 37.890625 29.097656 36.023438 27.226562 C 33.59375 24.800781 29.65625 24.800781 27.226562 27.226562 C 24.800781 29.65625 24.800781 33.59375 27.226562 36.023438 Z M 27.226562 36.023438 "/>
<path style=" stroke:none;fill-rule:nonzero;fill:rgb(50.980392%,50.980392%,50.980392%);fill-opacity:1;" d="M 13.671875 10.773438 L 13.546875 10.832031 L 13.335938 11.042969 L 18.476562 16.183594 L 20.160156 11.441406 C 18.316406 10.027344 15.804688 9.742188 13.671875 10.773438 Z M 13.671875 10.773438 "/>
<path style=" stroke:none;fill-rule:nonzero;fill:rgb(38.823529%,38.823529%,38.823529%);fill-opacity:1;" d="M 21.558594 17.429688 L 17.425781 21.558594 L 21.953125 26.082031 L 26.085938 21.953125 Z M 21.558594 17.429688 "/>
<path style=" stroke:none;fill-rule:nonzero;fill:rgb(38.823529%,38.823529%,38.823529%);fill-opacity:1;" d="M 20.773438 11.976562 C 20.578125 11.78125 20.375 11.605469 20.160156 11.441406 L 14.652344 16.949219 L 11.042969 13.335938 L 10.832031 13.546875 L 10.773438 13.671875 C 9.625 16.050781 10.109375 18.902344 11.976562 20.773438 C 14.40625 23.199219 18.34375 23.199219 20.773438 20.773438 C 23.199219 18.34375 23.199219 14.40625 20.773438 11.976562 Z M 20.773438 11.976562 "/>
<path style=" stroke:none;fill-rule:nonzero;fill:rgb(50.980392%,50.980392%,50.980392%);fill-opacity:1;" d="M 26.753906 21.324219 L 27.902344 22.472656 L 18.386719 31.988281 L 17.238281 30.839844 Z M 26.753906 21.324219 "/>
<path style=" stroke:none;fill-rule:nonzero;fill:rgb(63.137255%,63.137255%,63.137255%);fill-opacity:1;" d="M 25.644531 20.214844 L 26.789062 21.359375 L 17.273438 30.878906 L 16.128906 29.730469 Z M 25.644531 20.214844 "/>
<path style=" stroke:none;fill-rule:nonzero;fill:rgb(50.980392%,50.980392%,50.980392%);fill-opacity:1;" d="M 19.257812 32.984375 L 19.289062 28.863281 L 14.710938 31.144531 L 12.425781 35.722656 L 14.472656 37.769531 Z M 19.257812 32.984375 "/>
<path style=" stroke:none;fill-rule:nonzero;fill:rgb(63.137255%,63.137255%,63.137255%);fill-opacity:1;" d="M 18.136719 28.863281 L 15.128906 28.863281 L 10.339844 33.636719 L 12.425781 35.722656 L 19.289062 28.863281 Z M 18.136719 28.863281 "/>
<path style=" stroke:none;fill-rule:nonzero;fill:rgb(100%,23.529412%,67.843137%);fill-opacity:1;" d="M 36.988281 15.140625 C 38.128906 14 38.128906 12.148438 36.988281 11.011719 L 30.09375 15.613281 L 25.492188 22.507812 L 27.558594 24.570312 Z M 36.988281 15.140625 "/>
<path style=" stroke:none;fill-rule:nonzero;fill:rgb(99.607843%,38.039216%,57.254902%);fill-opacity:1;" d="M 32.859375 11.011719 L 23.429688 20.441406 L 25.492188 22.507812 L 36.988281 11.011719 C 35.851562 9.871094 34 9.871094 32.859375 11.011719 Z M 32.859375 11.011719 "/>
</g>
</svg>
