<svg id="Layer_1" enable-background="new 0 0 512 512" height="48" viewBox="0 0 512 512" width="48" xmlns="http://www.w3.org/2000/svg"><g><g><g><g><g><g id="XMLID_540_"><g id="XMLID_541_"><g id="XMLID_542_"><g id="XMLID_543_"><g id="XMLID_544_"><g id="XMLID_545_"><g id="XMLID_546_"><g id="XMLID_547_"><g id="XMLID_548_"><g id="XMLID_549_"><g id="XMLID_550_"><g id="XMLID_551_"><g id="XMLID_552_"><g id="XMLID_553_"><g><path d="m512 256c0 76.38-33.45 144.94-86.5 191.85-19.79 17.5-319.21 17.5-339 0-53.05-46.91-86.5-115.47-86.5-191.85 0-141.38 114.62-256 256-256s256 114.62 256 256z" fill="#336b90" /></g></g></g></g></g></g></g></g></g></g></g></g></g></g></g></g></g></g></g><path d="m512 256c0-1.821-.024-3.637-.061-5.45l-164.723-164.723-43.923 234.696 82.895 135.566c20.969-2.082 35.454-4.828 39.312-8.239 53.05-46.91 86.5-115.47 86.5-191.85z" fill="#205077" /><path d="m256 43.75c-5.577 0-123.456-5.068-123.456 155.984s0 202.723 0 202.723h246.913s0-41.671 0-202.723-117.88-155.984-123.457-155.984z" fill="#fbe280" /><path d="m379.46 199.73v202.73h-123.46v-358.71c5.58 0 123.46-5.07 123.46 155.98z" fill="#efc859" /><path d="m199.97 250.232h112.06v118.84h-112.06z" fill="#eaa678" /><path d="m256 250.236h56.03v118.84h-56.03z" fill="#d38c5b" /><path d="m344.251 152.225c-3.728-56.6-49.511-77.517-88.251-77.517s-84.523 20.917-88.251 77.517c-10.018 1.938-17.134 15.077-16.014 25.701l1.717 24.177c1.175 11.157 10.982 19.301 21.79 18.089l1.864-.202c22.138 59.446 56.857 65.644 78.894 69.124 22.038-3.48 56.756-9.678 78.894-69.124l1.864.202c10.807 1.212 20.614-6.932 21.79-18.089l1.717-24.177c1.12-10.624-5.996-23.763-16.014-25.701z" fill="#ffc397" /><path d="m360.265 177.926-1.717 24.177c-1.175 11.157-10.982 19.301-21.79 18.089l-1.864-.202c-7.566 20.293-16.592 34.388-26.078 44.277-18.291 19.081-38.299 22.552-52.817 24.847v-214.406c38.74 0 84.523 20.917 88.251 77.517 10.019 1.938 17.135 15.077 16.015 25.701z" fill="#eaa678" /><path d="m350.532 130.658c-1.126-24.777-22.525-65.322-72.455-67.95h-5.819c-122.282-8.621-106.823 96.398-106.823 96.398 93.013 12.587 106.917-44.403 106.917-44.403l2.103-7.732c7.659 20.556 26.959 69.103 60.685 81.125 0 .001 16.519-32.66 15.392-57.438z" fill="#fbe280" /><path d="m335.14 188.1c-33.73-12.03-53.03-60.57-60.68-81.13l-2.11 7.73s-3.13 12.83-16.35 24.96v-77.43c5.13-.08 10.54.08 16.26.48h5.82c49.93 2.63 71.33 43.17 72.45 67.95 1.13 24.78-15.39 57.44-15.39 57.44z" fill="#efc859" /><path d="m179.344 188.097s-20.084-24.589-21.774-51.432l48.804 1.9s-2.253 36.392-27.03 49.532z" fill="#fbe280" /><path d="m199.97 324.824h112.06v118.84h-112.06z" fill="#ffc397" /><path d="m256 324.824h56.03v118.84h-56.03z" fill="#eaa678" /><path d="m358.64 490.59c-8.81 3.86-17.88 7.24-27.18 10.1-23.85 7.35-49.2 11.31-75.46 11.31s-51.61-3.96-75.46-11.31c-9.3-2.86-18.37-6.24-27.18-10.1l27.18-165.77h19.43s3.42 83.64 56.03 109.55c52.61-25.91 56.03-109.55 56.03-109.55h19.43z" fill="#ea9611" /><path d="m358.64 490.59c-8.81 3.86-17.88 7.24-27.18 10.1-23.85 7.35-49.2 11.31-75.46 11.31v-77.63c14.61-7.19 25.42-18.84 33.43-31.91 20.82-34 22.6-77.64 22.6-77.64h19.43l12.73 77.64z" fill="#cc7a05" /><g><path d="m180.54 324.82v175.87c-35.19-10.83-67.14-29.05-94.04-52.84v-67.45c0-30.7 24.88-55.58 55.57-55.58z" fill="#fff" /><path d="m425.5 380.4v67.45c-26.9 23.79-58.85 42.01-94.04 52.84v-175.87h38.47c30.69 0 55.57 24.88 55.57 55.58z" fill="#dbdbdb" /></g></g></svg>